<svg xmlns="http://www.w3.org/2000/svg" version="1.1" xmlns:xlink="http://www.w3.org/1999/xlink" xmlns:svgjs="http://svgjs.dev/svgjs" viewBox="0 0 2.4530485376295403 3.9675915380785476"><g transform="matrix(1,0,0,1,0.25847259034797343,2.1733364477305743)"><rect width="3.9675915380785476" height="3.9675915380785476" x="-1.015744090572477" y="-2.1733364477305743" fill="#ffffff"></rect><g><path d=" M 0.809216155517578 0.8417699999999999 Q 0.7757841555175781 0.8417699999999999 0.755486155517578 0.8143079999999999 L 0.479672155517578 0.4513319999999999 L 0.588326155517578 0.34028999999999987 L 0.8736921555175781 0.717594 Q 0.890408155517578 0.7402799999999999 0.890408155517578 0.7665479999999999 Q 0.890408155517578 0.7999799999999999 0.865334155517578 0.8208749999999999 Q 0.840260155517578 0.8417699999999999 0.809216155517578 0.8417699999999999 M 0.823544155517578 -1.1102230246251565e-16 Q 0.852200155517578 -1.1102230246251565e-16 0.870707155517578 0.023282999999999943 Q 0.889214155517578 0.046565999999999885 0.889214155517578 0.0704459999999999 Q 0.889214155517578 0.09551999999999994 0.867722155517578 0.1170119999999999 L 0.367436155517578 0.595806 L 0.36146615551757805 0.42506399999999994 L 0.765038155517578 0.027461999999999875 Q 0.792500155517578 -1.1102230246251565e-16 0.823544155517578 -1.1102230246251565e-16 M 0.30773615551757805 0.8417699999999999 Q 0.27430415551757803 0.8417699999999999 0.25400615551757805 0.8208749999999999 Q 0.23370815551757804 0.7999799999999999 0.23370815551757804 0.768936 L 0.23370815551757804 0.07880399999999987 Q 0.23370815551757804 0.047759999999999914 0.255200155517578 0.026864999999999917 Q 0.27669215551757803 0.00596999999999992 0.31012415551757805 0.00596999999999992 Q 0.343556155517578 0.00596999999999992 0.36325715551757803 0.026864999999999917 Q 0.38295815551757806 0.047759999999999914 0.38295815551757806 0.07880399999999987 L 0.38295815551757806 0.768936 Q 0.38295815551757806 0.7999799999999999 0.362660155517578 0.8208749999999999 Q 0.34236215551757804 0.8417699999999999 0.30773615551757805 0.8417699999999999 M 1.385953135986328 0.00596999999999992 Q 1.471921135986328 0.00596999999999992 1.5387851359863278 0.03820799999999991 Q 1.605649135986328 0.0704459999999999 1.651618135986328 0.12835499999999989 Q 1.697587135986328 0.18626399999999987 1.720870135986328 0.26208299999999995 Q 1.7441531359863278 0.3379019999999999 1.7441531359863278 0.4238699999999999 Q 1.7441531359863278 0.539688 1.702363135986328 0.6346109999999999 Q 1.6605731359863278 0.7295339999999999 1.581172135986328 0.7856519999999999 Q 1.501771135986328 0.8417699999999999 1.385953135986328 0.8417699999999999 L 1.100587135986328 0.8417699999999999 Q 1.0695431359863279 0.8417699999999999 1.048648135986328 0.8208749999999999 Q 1.027753135986328 0.7999799999999999 1.027753135986328 0.768936 L 1.027753135986328 0.07880399999999987 Q 1.027753135986328 0.047759999999999914 1.048648135986328 0.026864999999999917 Q 1.0695431359863279 0.00596999999999992 1.100587135986328 0.00596999999999992 L 1.385953135986328 0.00596999999999992 M 1.374013135986328 0.7044599999999999 Q 1.4492351359863278 0.7044599999999999 1.496995135986328 0.6656549999999999 Q 1.5447551359863279 0.6268499999999999 1.566844135986328 0.5629709999999999 Q 1.588933135986328 0.4990919999999999 1.588933135986328 0.4238699999999999 Q 1.588933135986328 0.3677519999999999 1.5763961359863279 0.3170069999999999 Q 1.5638591359863279 0.2662619999999999 1.537591135986328 0.2274569999999999 Q 1.511323135986328 0.18865199999999993 1.470727135986328 0.16596599999999995 Q 1.430131135986328 0.14327999999999996 1.374013135986328 0.14327999999999996 L 1.165063135986328 0.14327999999999996 L 1.177003135986328 0.13253399999999993 L 1.177003135986328 0.717594 L 1.169839135986328 0.7044599999999999 L 1.374013135986328 0.7044599999999999" fill="#231f20" fill-rule="nonzero"></path></g><g><path d=" M 0.225666 0.9984825000000002 Q 0.269247 0.9984825000000002 0.3023805 1.0149000000000001 Q 0.335514 1.0313175 0.357603 1.0605705 Q 0.379692 1.0898235 0.3907365 1.127733 Q 0.401781 1.1656425000000001 0.401781 1.2074325000000001 Q 0.401781 1.2647445000000002 0.38208 1.3122060000000002 Q 0.362379 1.3596675 0.323574 1.388025 Q 0.284769 1.4163825 0.225666 1.4163825 L 0.076416 1.4163825 Q 0.06626699999999999 1.4163825 0.059401499999999996 1.4092185000000002 Q 0.052536 1.4020545000000002 0.052536 1.3919055 L 0.052536 1.0223625 Q 0.052536 1.0122135 0.059401499999999996 1.0053480000000001 Q 0.06626699999999999 0.9984825000000002 0.076416 0.9984825000000002 L 0.225666 0.9984825000000002 M 0.219696 1.3698165000000002 Q 0.265665 1.3698165000000002 0.2946195 1.3477275000000002 Q 0.323574 1.3256385000000002 0.3370065 1.2886245 Q 0.350439 1.2516105000000002 0.350439 1.2074325000000001 Q 0.350439 1.1751945000000001 0.3429765 1.1456430000000002 Q 0.335514 1.1160915 0.31969349999999996 1.0934055 Q 0.303873 1.0707195 0.2790975 1.0575855 Q 0.254322 1.0444515 0.219696 1.0444515 L 0.097311 1.0444515 L 0.102087 1.0396755 L 0.102087 1.3757865 L 0.098505 1.3698165000000002 L 0.219696 1.3698165000000002 M 0.6232758706054687 1.4223525000000001 Q 0.5755158706054687 1.4223525000000001 0.5396958706054688 1.4020545000000002 Q 0.5038758706054688 1.3817565 0.48417487060546877 1.346235 Q 0.46447387060546874 1.3107135 0.46447387060546874 1.2641475 Q 0.46447387060546874 1.2122085 0.48507037060546876 1.1754930000000001 Q 0.5056668706054688 1.1387775000000002 0.5385018706054687 1.1193750000000002 Q 0.5713368706054688 1.0999725000000002 0.6083508706054688 1.0999725000000002 Q 0.6364098706054687 1.0999725000000002 0.6617823706054687 1.1101215 Q 0.6871548706054688 1.1202705000000002 0.7071543706054688 1.1396730000000002 Q 0.7271538706054688 1.1590755000000001 0.7390938706054688 1.186239 Q 0.7510338706054687 1.2134025000000002 0.7516308706054687 1.2468345 Q 0.7510338706054687 1.2563865 0.7438698706054687 1.2629535 Q 0.7367058706054688 1.2695205 0.7271538706054688 1.2695205 L 0.49133887060546877 1.2695205 L 0.48059287060546874 1.2283275 L 0.7104378706054688 1.2283275 L 0.7008858706054688 1.2366855 L 0.7008858706054688 1.2235515000000001 Q 0.6990948706054687 1.1990745 0.6850653706054688 1.1814630000000002 Q 0.6710358706054688 1.1638515 0.6507378706054687 1.1542995 Q 0.6304398706054688 1.1447475 0.6083508706054688 1.1447475 Q 0.5904408706054688 1.1447475 0.5728293706054688 1.151016 Q 0.5552178706054688 1.1572845 0.5411883706054688 1.1713140000000002 Q 0.5271588706054687 1.1853435 0.5188008706054688 1.2074325000000001 Q 0.5104428706054688 1.2295215000000002 0.5104428706054688 1.2605655000000002 Q 0.5104428706054688 1.2951915 0.5244723706054688 1.3214595 Q 0.5385018706054687 1.3477275000000002 0.5635758706054688 1.362951 Q 0.5886498706054688 1.3781745 0.6214848706054688 1.3781745 Q 0.6429768706054688 1.3781745 0.6584988706054687 1.3728015 Q 0.6740208706054688 1.3674285000000002 0.6850653706054688 1.359369 Q 0.6961098706054687 1.3513095000000002 0.7038708706054688 1.3429515 Q 0.7116318706054687 1.3375785 0.7193928706054687 1.3375785 Q 0.7277508706054687 1.3375785 0.7337208706054688 1.3435485 Q 0.7396908706054688 1.3495185 0.7396908706054688 1.3578765000000002 Q 0.7396908706054688 1.3680255000000001 0.7301388706054688 1.3757865 Q 0.7128258706054688 1.3942935 0.6844683706054687 1.408323 Q 0.6561108706054688 1.4223525000000001 0.6232758706054687 1.4223525000000001 M 0.8089583203125 1.3674285000000002 Q 0.8035853203125 1.3596675 0.8041823203125 1.3510110000000002 Q 0.8047793203125 1.3423545000000001 0.8143313203125 1.3357875000000001 Q 0.8203013203125 1.3316085000000002 0.8283608203125 1.3322055000000002 Q 0.8364203203125 1.3328025000000001 0.8429873203125 1.3399665 Q 0.8597033203125 1.3596675 0.8811953203125 1.3713090000000001 Q 0.9026873203125 1.3829505000000002 0.9337313203125 1.3829505000000002 Q 0.9480593203125001 1.3823535 0.9623873203125 1.3781745 Q 0.9767153203125 1.3739955000000001 0.9865658203125001 1.3635480000000002 Q 0.9964163203125 1.3531005 0.9964163203125 1.3357875000000001 Q 0.9964163203125 1.3190715000000002 0.9862673203125 1.3092210000000002 Q 0.9761183203125 1.2993705000000002 0.9599993203125 1.2931020000000002 Q 0.9438803203125 1.2868335000000002 0.9247763203125 1.2820575 Q 0.9050753203125 1.2766845 0.8859713203125 1.269819 Q 0.8668673203125 1.2629535 0.8516438203125 1.2525060000000001 Q 0.8364203203125 1.2420585000000002 0.8271668203125 1.2262380000000002 Q 0.8179133203125 1.2104175000000001 0.8179133203125 1.1877315000000002 Q 0.8179133203125 1.1608665 0.8325398203125 1.1411655 Q 0.8471663203124999 1.1214645 0.8719418203125 1.1107185000000002 Q 0.8967173203125001 1.0999725000000002 0.9259703203125 1.0999725000000002 Q 0.9426863203125 1.0999725000000002 0.9608948203125001 1.103853 Q 0.9791033203125 1.1077335000000001 0.9964163203125 1.1169870000000002 Q 1.0137293203125 1.1262405000000002 1.0268633203125 1.1423595 Q 1.0322363203125 1.1483295 1.0328333203125 1.1572845 Q 1.0334303203125 1.1662395 1.0250723203125 1.1734035 Q 1.0185053203125 1.1781795000000002 1.0104458203125 1.1775825000000002 Q 1.0023863203125 1.1769855 0.9970133203125 1.1716125000000002 Q 0.9844763203125 1.1566875 0.9656708203125 1.148628 Q 0.9468653203125 1.1405685 0.9241793203124999 1.1405685 Q 0.9098513203125 1.1405685 0.8961203203125 1.1447475 Q 0.8823893203125 1.1489265000000002 0.8731358203125 1.1587770000000002 Q 0.8638823203125 1.1686275000000002 0.8638823203125 1.1859405 Q 0.8644793203125 1.2020595 0.8746283203125 1.2122085 Q 0.8847773203125 1.2223575000000002 0.9020903203125 1.2286260000000002 Q 0.9194033203125 1.2348945000000002 0.9402983203124999 1.2408645 Q 0.9594023203125 1.2456405000000002 0.9770138203125001 1.2519090000000002 Q 0.9946253203125 1.2581775000000002 1.0089533203125 1.2683265000000001 Q 1.0232813203125 1.2784755 1.0316393203125 1.2942960000000001 Q 1.0399973203125 1.3101165000000001 1.0399973203125 1.3339965 Q 1.0399973203125 1.3614585000000001 1.0244753203124999 1.381458 Q 1.0089533203125 1.4014575 0.9835808203125 1.4119050000000002 Q 0.9582083203125 1.4223525000000001 0.9289553203125 1.4223525000000001 Q 0.8961203203125 1.4223525000000001 0.8641808203125 1.4098155 Q 0.8322413203125 1.3972785 0.8089583203125 1.3674285000000002 M 1.1611877373046875 1.3919055 Q 1.1611877373046875 1.4020545000000002 1.1543222373046875 1.4092185000000002 Q 1.1474567373046876 1.4163825 1.1373077373046876 1.4163825 Q 1.1265617373046874 1.4163825 1.1199947373046875 1.4092185000000002 Q 1.1134277373046875 1.4020545000000002 1.1134277373046875 1.3919055 L 1.1134277373046875 1.1268375000000002 Q 1.1134277373046875 1.1166885 1.1202932373046874 1.109823 Q 1.1271587373046876 1.1029575 1.1373077373046876 1.1029575 Q 1.1474567373046876 1.1029575 1.1543222373046875 1.109823 Q 1.1611877373046875 1.1166885 1.1611877373046875 1.1268375000000002 L 1.1611877373046875 1.3919055 M 1.1373077373046876 1.0629585000000001 Q 1.1223827373046875 1.0629585000000001 1.1152187373046876 1.0569885 Q 1.1080547373046876 1.0510185 1.1080547373046876 1.0384815 L 1.1080547373046876 1.0301235000000002 Q 1.1080547373046876 1.0175865000000002 1.1158157373046875 1.0116165000000001 Q 1.1235767373046874 1.0056465 1.1379047373046876 1.0056465 Q 1.1522327373046874 1.0056465 1.1593967373046876 1.0116165000000001 Q 1.1665607373046876 1.0175865000000002 1.1665607373046876 1.0301235000000002 L 1.1665607373046876 1.0384815 Q 1.1665607373046876 1.0510185 1.1590982373046874 1.0569885 Q 1.1516357373046875 1.0629585000000001 1.1373077373046876 1.0629585000000001 M 1.3796946928710938 1.0999725000000002 Q 1.4059626928710938 1.0999725000000002 1.4280516928710938 1.108629 Q 1.4501406928710938 1.1172855000000002 1.4665581928710938 1.1310165 Q 1.482975692871094 1.1447475 1.4922291928710938 1.1596725 Q 1.5014826928710938 1.1745975000000002 1.5014826928710938 1.1877315000000002 L 1.489542692871094 1.1805675 L 1.489542692871094 1.1286285 Q 1.489542692871094 1.1184795 1.496408192871094 1.111614 Q 1.503273692871094 1.1047485000000001 1.5134226928710939 1.1047485000000001 Q 1.5241686928710938 1.1047485000000001 1.5307356928710938 1.111614 Q 1.5373026928710938 1.1184795 1.5373026928710938 1.1286285 L 1.5373026928710938 1.3901145000000001 Q 1.5373026928710938 1.4390685 1.5167061928710939 1.4713065 Q 1.496109692871094 1.5035445 1.461483692871094 1.5196635 Q 1.4268576928710939 1.5357825 1.384470692871094 1.5357825 Q 1.3665606928710938 1.5357825 1.3447701928710938 1.5310065000000002 Q 1.322979692871094 1.5262305 1.3062636928710938 1.519365 Q 1.2895476928710938 1.5124995 1.285368692871094 1.5053355000000002 Q 1.2764136928710939 1.4993655000000001 1.2743241928710938 1.4919030000000002 Q 1.272234692871094 1.4844405 1.2764136928710939 1.4778735 Q 1.2823836928710939 1.4695155000000002 1.290741692871094 1.4695155000000002 Q 1.2990996928710938 1.4695155000000002 1.3122336928710938 1.4748885 Q 1.3182036928710938 1.4766795000000001 1.329546692871094 1.4808585 Q 1.3408896928710938 1.4850375 1.355814692871094 1.488321 Q 1.3707396928710938 1.4916045 1.3850676928710939 1.4916045 Q 1.435812692871094 1.4916045 1.4626776928710938 1.465038 Q 1.489542692871094 1.4384715000000001 1.489542692871094 1.3948905 L 1.489542692871094 1.3393695 L 1.496109692871094 1.3423545000000001 Q 1.4925276928710938 1.3590705 1.4817816928710938 1.3733985000000002 Q 1.471035692871094 1.3877265 1.455215192871094 1.3987710000000002 Q 1.439394692871094 1.4098155 1.419992192871094 1.4160840000000001 Q 1.400589692871094 1.4223525000000001 1.380888692871094 1.4223525000000001 Q 1.3390986928710937 1.4223525000000001 1.3059651928710938 1.4014575 Q 1.2728316928710939 1.3805625000000001 1.253429192871094 1.3441455000000002 Q 1.234026692871094 1.3077285 1.234026692871094 1.2611625000000002 Q 1.234026692871094 1.2139995000000001 1.253429192871094 1.1775825000000002 Q 1.2728316928710939 1.1411655 1.3056666928710938 1.1205690000000001 Q 1.3385016928710938 1.0999725000000002 1.3796946928710938 1.0999725000000002 M 1.3862616928710938 1.1441505 Q 1.355217692871094 1.1441505 1.3313376928710938 1.1593740000000001 Q 1.307457692871094 1.1745975000000002 1.2937266928710938 1.2008655000000001 Q 1.2799956928710938 1.2271335 1.2799956928710938 1.2611625000000002 Q 1.2799956928710938 1.2939975000000001 1.2937266928710938 1.320564 Q 1.307457692871094 1.3471305 1.3313376928710938 1.3626525 Q 1.355217692871094 1.3781745 1.3862616928710938 1.3781745 Q 1.4173056928710939 1.3781745 1.4411856928710938 1.362951 Q 1.465065692871094 1.3477275000000002 1.4787966928710938 1.3214595 Q 1.4925276928710938 1.2951915 1.4925276928710938 1.2611625000000002 Q 1.4925276928710938 1.2265365000000001 1.4787966928710938 1.2002685000000002 Q 1.465065692871094 1.1740005 1.4411856928710938 1.1590755000000001 Q 1.4173056928710939 1.1441505 1.3862616928710938 1.1441505 M 1.785071685058594 1.0999725000000002 Q 1.8256676850585938 1.0999725000000002 1.8489506850585937 1.1166885 Q 1.8722336850585939 1.1334045000000001 1.8820841850585939 1.1614635 Q 1.8919346850585939 1.1895225 1.8919346850585939 1.2241485 L 1.8919346850585939 1.3919055 Q 1.8919346850585939 1.4020545000000002 1.8850691850585939 1.4092185000000002 Q 1.878203685058594 1.4163825 1.8680546850585937 1.4163825 Q 1.8579056850585938 1.4163825 1.8510401850585938 1.4092185000000002 Q 1.8441746850585938 1.4020545000000002 1.8441746850585938 1.3919055 L 1.8441746850585938 1.2253425 Q 1.8441746850585938 1.2026565 1.8373091850585939 1.1844480000000002 Q 1.830443685058594 1.1662395 1.8146231850585939 1.155195 Q 1.7988026850585939 1.1441505 1.7713406850585938 1.1441505 Q 1.7462666850585937 1.1441505 1.7253716850585938 1.155195 Q 1.7044766850585937 1.1662395 1.691939685058594 1.1844480000000002 Q 1.679402685058594 1.2026565 1.679402685058594 1.2253425 L 1.679402685058594 1.3919055 Q 1.679402685058594 1.4020545000000002 1.672537185058594 1.4092185000000002 Q 1.6656716850585938 1.4163825 1.6555226850585938 1.4163825 Q 1.6453736850585938 1.4163825 1.6385081850585939 1.4092185000000002 Q 1.631642685058594 1.4020545000000002 1.631642685058594 1.3919055 L 1.631642685058594 1.1316135 Q 1.631642685058594 1.1214645 1.6385081850585939 1.1145990000000001 Q 1.6453736850585938 1.1077335000000001 1.6555226850585938 1.1077335000000001 Q 1.666268685058594 1.1077335000000001 1.672835685058594 1.1145990000000001 Q 1.679402685058594 1.1214645 1.679402685058594 1.1316135 L 1.679402685058594 1.1740005 L 1.6674626850585939 1.1871345 Q 1.6704476850585939 1.1716125000000002 1.6811936850585938 1.1557920000000002 Q 1.691939685058594 1.1399715000000001 1.708058685058594 1.1274345000000001 Q 1.724177685058594 1.1148975 1.743878685058594 1.1074350000000002 Q 1.7635796850585939 1.0999725000000002 1.785071685058594 1.0999725000000002" fill="#231f20" fill-rule="nonzero"></path></g><g clip-path="url(#SvgjsClipPath1002)"><g clip-path="url(#a2cccc9f1-a12b-48cc-962a-5c596efdeff7f3c6655a-46f8-4802-91cc-f4551a5a68f2)"><path d=" M 1.8514728332710955 -0.7531069051538011 L 0.08465528773540355 -0.7531069051538011 L 0.08465528773540355 -1.8241778224016387 C 0.08466895622058408 -1.8671036968371473 0.11946383815114632 -1.9018985787677043 0.1623897125866494 -1.9019122472528784 L 1.773738408419856 -1.9019122472528784 C 1.8166642828553585 -1.9018985787677012 1.8514591647859184 -1.8671036968371413 1.8514728332710955 -1.8241778224016385 Z" fill="#5a5758" transform="matrix(1,0,0,1,0,0)" fill-rule="nonzero"></path></g><g clip-path="url(#a2cccc9f1-a12b-48cc-962a-5c596efdeff7f3c6655a-46f8-4802-91cc-f4551a5a68f2)"><path d=" M 1.8514728332710955 -0.7531069051538011 L 0.08465528773540355 -0.7531069051538011 L 0.08465528773540355 -1.8241778224016387 C 0.08466895622058408 -1.8671036968371473 0.11946383815114632 -1.9018985787677043 0.1623897125866494 -1.9019122472528784 L 1.773738408419856 -1.9019122472528784 C 1.8166642828553585 -1.9018985787677012 1.8514591647859184 -1.8671036968371413 1.8514728332710955 -1.8241778224016385 Z" fill="none" transform="matrix(1,0,0,1,0,0)" fill-rule="nonzero" stroke-dasharray="none" stroke-miterlimit="10" stroke-linejoin="miter" stroke-linecap="butt" stroke-width="0.025903220259444602" stroke="#231f20"></path></g><g clip-path="url(#a2cccc9f1-a12b-48cc-962a-5c596efdeff7f3c6655a-46f8-4802-91cc-f4551a5a68f2)"><path d=" M 0.08463052366249775 -0.7531069051538011 L 1.8514480691981898 -0.7531069051538011 L 1.8514480691981898 -0.6523418925001871 C 1.8514480698379199 -0.6094103562763129 1.8166451828874908 -0.5746074682886775 1.7737136455052833 -0.5746074676489477 L 0.16236494851373728 -0.5746074676489477 C 0.14174849721499572 -0.5746074676489477 0.1219764420871321 -0.5827973210388973 0.10739840956978974 -0.5973753535562396 C 0.09282037705244735 -0.611953386073582 0.08463052366249774 -0.6317254412014457 0.08463052366249774 -0.6523418925001871 Z" fill="#ffffff" transform="matrix(1,0,0,1,0,0)" fill-rule="nonzero"></path></g><g clip-path="url(#a2cccc9f1-a12b-48cc-962a-5c596efdeff7f3c6655a-46f8-4802-91cc-f4551a5a68f2)"><path d=" M 0.08463052366249775 -0.7531069051538011 L 1.8514480691981898 -0.7531069051538011 L 1.8514480691981898 -0.6523418925001871 C 1.8514480698379199 -0.6094103562763129 1.8166451828874908 -0.5746074682886775 1.7737136455052833 -0.5746074676489477 L 0.16236494851373728 -0.5746074676489477 C 0.14174849721499572 -0.5746074676489477 0.1219764420871321 -0.5827973210388973 0.10739840956978974 -0.5973753535562396 C 0.09282037705244735 -0.611953386073582 0.08463052366249774 -0.6317254412014457 0.08463052366249774 -0.6523418925001871 Z" fill="none" transform="matrix(1,0,0,1,0,0)" fill-rule="nonzero" stroke-dasharray="none" stroke-miterlimit="10" stroke-linejoin="miter" stroke-linecap="butt" stroke-width="0.025903220259444602" stroke="#231f20"></path></g><g clip-path="url(#SvgjsClipPath1000f3c6655a-46f8-4802-91cc-f4551a5a68f2)"><path d=" M 0.8739811622715915 -0.6638644120806314 L 1.0621385882096985 -0.6638644120806314" fill="none" transform="matrix(1,0,0,1,0,0)" fill-rule="nonzero" stroke-dasharray="none" stroke-miterlimit="10" stroke-linejoin="miter" stroke-linecap="butt" stroke-width="0.025903220259444602" stroke="#231f20"></path></g><g clip-path="url(#SvgjsClipPath1000f3c6655a-46f8-4802-91cc-f4551a5a68f2)"><path d=" M 0.17553943529961163 -0.8451054359987693 L 0.23086237417112138 -0.8451054359987693 L 0.23086237417112138 -1.7500837162675487 L 0.17553943529961163 -1.7500837162675487 Z" fill="#d3d2d2" transform="matrix(1,0,0,1,0,0)" fill-rule="nonzero" stroke-dasharray="none" stroke-miterlimit="10" stroke-linejoin="miter" stroke-linecap="butt" stroke-width="0.025903220259444602" stroke="#231f20"></path></g><g clip-path="url(#SvgjsClipPath1000f3c6655a-46f8-4802-91cc-f4551a5a68f2)"><path d=" M 0.17553943529961163 -1.752733472068467 L 1.7605639216339815 -1.752733472068467 L 1.7605639216339815 -1.8080564109399768 L 0.17553943529961163 -1.8080564109399768 Z" fill="#d3d2d2" transform="matrix(1,0,0,1,0,0)" fill-rule="nonzero" stroke-dasharray="none" stroke-miterlimit="10" stroke-linejoin="miter" stroke-linecap="butt" stroke-width="0.025878456186538817" stroke="#231f20"></path></g><g clip-path="url(#SvgjsClipPath1000f3c6655a-46f8-4802-91cc-f4551a5a68f2)"><path d=" M 0.23085039006335983 -1.7405099373460824 L 0.23085039006335983 -1.8058375616715268" fill="none" transform="matrix(1,0,0,1,0,0)" fill-rule="nonzero" stroke-dasharray="none" stroke-miterlimit="10" stroke-linejoin="miter" stroke-linecap="butt" stroke-width="0.025903220259444602" stroke="#231f20"></path></g><g clip-path="url(#SvgjsClipPath1000f3c6655a-46f8-4802-91cc-f4551a5a68f2)"><path d=" M 0.21902514732215914 -1.7645459348445236 L 0.1873518980756681 -1.7645459348445236 L 0.1873518980756681 -1.7962191840910147 L 0.21902514732215914 -1.7962191840910147 Z" fill="#67c5f0" transform="matrix(1,0,0,1,0,0)" fill-rule="nonzero"></path></g><g clip-path="url(#SvgjsClipPath1000f3c6655a-46f8-4802-91cc-f4551a5a68f2)"><path d=" M 1.7605639216339815 -0.8451054359987693 L 0.23086237417112138 -0.8451054359987693 L 0.23086237417112138 -1.7500837162675487 L 1.7605639216339815 -1.7500837162675487 Z" fill="#ffffff" transform="matrix(1,0,0,1,0,0)" fill-rule="nonzero" stroke-dasharray="none" stroke-miterlimit="10" stroke-linejoin="miter" stroke-linecap="butt" stroke-width="0.025903220259444602" stroke="#231f20"></path></g><g clip-path="url(#SvgjsClipPath1000f3c6655a-46f8-4802-91cc-f4551a5a68f2)"><path d=" M 0.23085039006335983 -1.6160330136928762 L 1.7605519375262202 -1.6160330136928762" fill="none" transform="matrix(1,0,0,1,0,0)" fill-rule="nonzero" stroke-dasharray="none" stroke-miterlimit="10" stroke-linejoin="miter" stroke-linecap="butt" stroke-width="0.025903220259444602" stroke="#231f20"></path></g><g clip-path="url(#SvgjsClipPath1000f3c6655a-46f8-4802-91cc-f4551a5a68f2)"><path d=" M 0.506920964993419 -1.7474562771620028 L 0.506920964993419 -1.616033342251035" fill="none" transform="matrix(1,0,0,1,0,0)" fill-rule="nonzero" stroke-dasharray="none" stroke-miterlimit="10" stroke-linejoin="miter" stroke-linecap="butt" stroke-width="0.025903220259444602" stroke="#231f20"></path></g><g clip-path="url(#SvgjsClipPath1000f3c6655a-46f8-4802-91cc-f4551a5a68f2)"><path d=" M 0.5577369696360885 -1.6817446454274396 L 1.7102073945252205 -1.6817446454274396" fill="none" transform="matrix(1,0,0,1,0,0)" fill-rule="nonzero" stroke-dasharray="none" stroke-miterlimit="10" stroke-linejoin="miter" stroke-linecap="butt" stroke-width="0.025903220259444602" stroke="#231f20"></path></g><g clip-path="url(#SvgjsClipPath1000f3c6655a-46f8-4802-91cc-f4551a5a68f2)"><path d=" M 0.3096616541573094 -1.6660839809711472 L 0.27798840491081833 -1.6660839809711472 L 0.27798840491081833 -1.6977572302176382 L 0.3096616541573094 -1.6977572302176382 Z M 0.3831861866145666 -1.6660839809711472 L 0.35151293736807554 -1.6660839809711472 L 0.35151293736807554 -1.6977572302176382 L 0.3831861866145666 -1.6977572302176382 Z M 0.45668595499891795 -1.6660839809711472 L 0.42501270575242694 -1.6660839809711472 L 0.42501270575242694 -1.6977572302176382 L 0.45668595499891795 -1.6977572302176382 Z" fill="#231f20" transform="matrix(1,0,0,1,0,0)" fill-rule="nonzero"></path></g><g clip-path="url(#SvgjsClipPath1000f3c6655a-46f8-4802-91cc-f4551a5a68f2)"><path d=" M 1.6751031060361394 -1.2364273160558854 L 0.3163479538418697 -1.2364273160558854 L 0.3163479538418697 -1.454524506137079 L 1.6751031060361394 -1.454524506137079 Z" fill="#f03f52" transform="matrix(1,0,0,1,0,0)" fill-rule="nonzero"></path></g><g clip-path="url(#SvgjsClipPath1000f3c6655a-46f8-4802-91cc-f4551a5a68f2)"><path d=" M 0.6231885779550826 -1.1653567152080888 L 1.6750921027738475 -1.1653567152080888" fill="none" transform="matrix(1,0,0,1,0,0)" fill-rule="nonzero" stroke-dasharray="none" stroke-miterlimit="10" stroke-linejoin="miter" stroke-linecap="butt" stroke-width="0.02568034360329259" stroke="#231f20"></path></g><g clip-path="url(#SvgjsClipPath1000f3c6655a-46f8-4802-91cc-f4551a5a68f2)"><path d=" M 0.6231885779550826 -1.0954104164199694 L 1.6750921027738475 -1.0954104164199694" fill="none" transform="matrix(1,0,0,1,0,0)" fill-rule="nonzero" stroke-dasharray="none" stroke-miterlimit="10" stroke-linejoin="miter" stroke-linecap="butt" stroke-width="0.02568034360329259" stroke="#231f20"></path></g><g clip-path="url(#SvgjsClipPath1000f3c6655a-46f8-4802-91cc-f4551a5a68f2)"><path d=" M 0.6231885779550826 -1.0254455445307382 L 1.6750921027738475 -1.0254455445307382" fill="none" transform="matrix(1,0,0,1,0,0)" fill-rule="nonzero" stroke-dasharray="none" stroke-miterlimit="10" stroke-linejoin="miter" stroke-linecap="butt" stroke-width="0.02568034360329259" stroke="#231f20"></path></g><g clip-path="url(#SvgjsClipPath1000f3c6655a-46f8-4802-91cc-f4551a5a68f2)"><path d=" M 0.6231885779550826 -0.9554806726415069 L 1.6750921027738475 -0.9554806726415069" fill="none" transform="matrix(1,0,0,1,0,0)" fill-rule="nonzero" stroke-dasharray="none" stroke-miterlimit="10" stroke-linejoin="miter" stroke-linecap="butt" stroke-width="0.02568034360329259" stroke="#231f20"></path></g><g clip-path="url(#SvgjsClipPath1000f3c6655a-46f8-4802-91cc-f4551a5a68f2)"><path d=" M 0.5711207358965217 -0.9398032507904672 L 0.3163231897689639 -0.9398032507904672 L 0.3163231897689639 -1.1785041495292687 L 0.5711207358965217 -1.1785041495292687 Z" fill="#67c5f0" transform="matrix(1,0,0,1,0,0)" fill-rule="nonzero"></path></g><g clip-path="url(#SvgjsClipPath1000f3c6655a-46f8-4802-91cc-f4551a5a68f2)"><path d=" M 0.7908771188624025 -1.5087825898736402 L 0.7592038696159115 -1.5087825898736402 L 0.7592038696159115 -1.5404558391201315 L 0.7908771188624025 -1.5404558391201315 Z M 0.8644264153925655 -1.5087825898736402 L 0.8327531661460743 -1.5087825898736402 L 0.8327531661460743 -1.5404558391201315 L 0.8644264153925655 -1.5404558391201315 Z M 0.9380004759956341 -1.5087825898736402 L 0.9063272267491429 -1.5087825898736402 L 0.9063272267491429 -1.5404558391201315 L 0.938000475995634 -1.5404558391201315 Z M 1.0115497725257971 -1.5087825898736402 L 0.9798765232793062 -1.5087825898736402 L 0.9798765232793062 -1.5404558391201315 L 1.0115497725257971 -1.5404558391201315 Z M 1.08509906905596 -1.5087825898736402 L 1.053425819809469 -1.5087825898736402 L 1.053425819809469 -1.5404558391201315 L 1.08509906905596 -1.5404558391201315 Z M 1.158648365586123 -1.5087825898736402 L 1.126975116339632 -1.5087825898736402 L 1.126975116339632 -1.5404558391201315 L 1.158648365586123 -1.5404558391201315 Z M 1.2322224261891916 -1.5087825898736402 L 1.2005491769427006 -1.5087825898736402 L 1.2005491769427006 -1.5404558391201315 L 1.2322224261891916 -1.5404558391201315 Z" fill="#231f20" transform="matrix(1,0,0,1,0,0)" fill-rule="nonzero"></path></g><g clip-path="url(#SvgjsClipPath1000f3c6655a-46f8-4802-91cc-f4551a5a68f2)"><path d=" M 0.6628468619395262 -0.2636450041710836 L 1.2732317309211614 -0.2636450041710836 L 1.2732317309211614 -0.33850679656525284 L 0.6628468619395262 -0.33850679656525284 Z" fill="#ffffff" transform="matrix(1,0,0,1,0,0)" fill-rule="nonzero"></path></g><g clip-path="url(#b2cccc9f1-a12b-48cc-962a-5c596efdeff7f3c6655a-46f8-4802-91cc-f4551a5a68f2)"><path d=" M 1.2732317309211614 -0.2636450041710836 L 0.6628468619395262 -0.2636450041710836 L 0.6628468619395262 -0.33850679656525284 L 1.2732317309211614 -0.33850679656525284 Z" fill="none" transform="matrix(1,0,0,1,0,0)" fill-rule="nonzero" stroke-dasharray="none" stroke-miterlimit="10" stroke-linejoin="miter" stroke-linecap="butt" stroke-width="0.025903220259444602" stroke="#231f20"></path></g><g clip-path="url(#SvgjsClipPath1000f3c6655a-46f8-4802-91cc-f4551a5a68f2)"><path d=" M 1.1162301200765405 -0.5746020881359415 L 1.1629846897226508 -0.3385014170522467 L 0.7731486540398813 -0.3385014170522467 L 0.8199032236859918 -0.5746020881359415 Z" fill="#ffffff" transform="matrix(1,0,0,1,0,0)" fill-rule="nonzero"></path></g><g clip-path="url(#SvgjsClipPath1000f3c6655a-46f8-4802-91cc-f4551a5a68f2)"><path d=" M 1.1162301200765405 -0.5746020881359415 L 1.1629846897226508 -0.3385014170522467 L 0.7731486540398813 -0.3385014170522467 L 0.8199032236859918 -0.5746020881359415 Z" fill="none" transform="matrix(1,0,0,1,0,0)" fill-rule="nonzero" stroke-dasharray="none" stroke-miterlimit="10" stroke-linejoin="miter" stroke-linecap="butt" stroke-width="0.025903220259444602" stroke="#231f20"></path></g><g clip-path="url(#c2cccc9f1-a12b-48cc-962a-5c596efdeff7f3c6655a-46f8-4802-91cc-f4551a5a68f2)"><path d=" M 0.07167891353277546 -0.2629516101297218 L 1.864424443400818 -0.2629516101297218" fill="none" transform="matrix(1,0,0,1,0,0)" fill-rule="nonzero" stroke-dasharray="none" stroke-miterlimit="10" stroke-linejoin="miter" stroke-linecap="butt" stroke-width="0.025903220259444602" stroke="#231f20"></path></g></g></g><defs><clipPath id="SvgjsClipPath1002"><path d=" M 0.07167891353277545 -1.9148638573826007 h 1.7927455298680426 v 1.6648638573826007 h -1.7927455298680426 Z"></path></clipPath><clipPath id="a2cccc9f1-a12b-48cc-962a-5c596efdeff7f3c6655a-46f8-4802-91cc-f4551a5a68f2"><path d=" M 0.07167891353277546 -0.24999999999999956 L 1.864424443400818 -0.24999999999999956 L 1.864424443400818 -1.9148638573826007 L 0.07167891353277546 -1.9148638573826007 Z"></path></clipPath><clipPath id="SvgjsClipPath1000f3c6655a-46f8-4802-91cc-f4551a5a68f2"><path d=" M 0.07167891353277545 -1.914863857382601 L 1.864424443400818 -1.914863857382601 L 1.864424443400818 -0.25 L 0.07167891353277545 -0.25 Z"></path></clipPath><clipPath id="b2cccc9f1-a12b-48cc-962a-5c596efdeff7f3c6655a-46f8-4802-91cc-f4551a5a68f2"><path d=" M 0.07167891353277546 -0.24999999999999956 L 1.864424443400818 -0.24999999999999956 L 1.864424443400818 -1.9148638573826007 L 0.07167891353277546 -1.9148638573826007 Z"></path></clipPath><clipPath id="c2cccc9f1-a12b-48cc-962a-5c596efdeff7f3c6655a-46f8-4802-91cc-f4551a5a68f2"><path d=" M 0.07167891353277546 -0.24999999999999956 L 1.864424443400818 -0.24999999999999956 L 1.864424443400818 -1.9148638573826007 L 0.07167891353277546 -1.9148638573826007 Z"></path></clipPath></defs></svg>